<?xml version="1.0" encoding="UTF-8"?>
<svg width="467px" height="404px" viewBox="0 0 467 404" version="1.1" xmlns="http://www.w3.org/2000/svg" xmlns:xlink="http://www.w3.org/1999/xlink">
    <!-- Generator: Sketch 46.2 (44496) - http://www.bohemiancoding.com/sketch -->
    <title>Group 5</title>
    <desc>Created with Sketch.</desc>
    <defs></defs>
    <g id="Page-1" stroke="none" stroke-width="1" fill="none" fill-rule="evenodd">
        <g id="Artboard" transform="translate(-1024.000000, -2497.000000)">
            <g id="Group-5" transform="translate(1026.000000, 2498.000000)">
                <path d="M444.710862,116.567261 C389.430293,18.6415502 220.993093,-33.1562592 125.244338,23.3811763 C29.495583,79.9186117 -34.8668803,184.913036 20.4136892,282.838747 C75.6942587,380.764458 229.684234,434.53898 325.432989,378.001545 C421.181744,321.464109 499.991432,214.492972 444.710862,116.567261 Z" id="Oval-Copy-2" stroke="#0014FF" stroke-width="2" opacity="0.50999999" style="mix-blend-mode: multiply;"></path>
                <path d="M432.857298,122.724154 C406.148649,75.440237 351.395321,39.5817217 292.224531,23.0524909 C236.045665,7.3590474 175.884775,9.0895685 131.963175,35.0085791 C41.7808376,88.2269718 -18.8398709,187.057675 33.2269257,279.234635 C85.2937223,371.411595 230.331387,422.029272 320.513724,368.81088 C410.696061,315.592487 484.924095,214.901114 432.857298,122.724154 Z" id="Oval" fill="#0014FF" opacity="0.469999999" style="mix-blend-mode: multiply;"></path>
            </g>
        </g>
    </g>
</svg>