<?xml version="1.0" encoding="UTF-8"?>
<svg width="330px" height="291px" viewBox="0 0 330 291" version="1.1" xmlns="http://www.w3.org/2000/svg" xmlns:xlink="http://www.w3.org/1999/xlink">
    <!-- Generator: Sketch 46.2 (44496) - http://www.bohemiancoding.com/sketch -->
    <title>Group 4</title>
    <desc>Created with Sketch.</desc>
    <defs></defs>
    <g id="Page-1" stroke="none" stroke-width="1" fill="none" fill-rule="evenodd" opacity="0.369565217">
        <g id="Desktop-HD-Copy-2" transform="translate(-88.000000, -1200.000000)" fill="#1522B2">
            <g id="navring" transform="translate(31.000000, 1100.000000)">
                <g id="Group-4" transform="translate(56.000000, 100.000000)">
                    <path d="M3.30000125,163.306135 L7.51449386,162.637916 L7.51449386,162.637916 C8.60543592,162.464944 9.63004044,163.209106 9.80301211,164.300048 C9.83591313,164.507557 9.83591164,164.718954 9.80300771,164.926462 L9.13475874,169.140763 L9.13475874,169.140763 C8.96177175,170.231703 7.93715678,170.975851 6.84621715,170.802864 C6.42920584,170.736739 6.04381866,170.540337 5.74525633,170.241788 L2.19901269,166.695706 L2.19901269,166.695706 C1.41794638,165.914675 1.41791764,164.648345 2.1989485,163.867279 C2.497526,163.568687 2.8829489,163.372259 3.30000125,163.306135 Z" id="Rectangle-11" transform="translate(5.720440, 166.720392) rotate(-55.000000) translate(-5.720440, -166.720392) "></path>
                    <path d="M41.0291651,1.0355262 L45.2436577,0.367307558 L45.2436577,0.367307558 C46.3345997,0.194335889 47.3592043,0.938497925 47.5321759,2.02943999 C47.5650769,2.23694858 47.5650755,2.44834541 47.5321715,2.65585355 L46.8639226,6.87015486 L46.8639226,6.87015486 C46.6909356,7.96109449 45.6663206,8.70524214 44.575381,8.53225515 C44.1583697,8.46613093 43.7729825,8.26972865 43.4744202,7.97117987 L39.9281765,4.42509719 L39.9281765,4.42509719 C39.1471102,3.64406634 39.1470815,2.37773638 39.9281123,1.59667007 C40.2266898,1.29807902 40.6121127,1.10165092 41.0291651,1.0355262 Z" id="Rectangle-11-Copy" transform="translate(43.449604, 4.449784) rotate(5.000000) translate(-43.449604, -4.449784) "></path>
                    <path d="M303.029344,10.0353469 L307.243837,9.36712827 L307.243837,9.36712827 C308.334779,9.1941566 309.359384,9.93831864 309.532355,11.0292607 C309.565256,11.2367693 309.565255,11.4481661 309.532351,11.6556743 L308.864102,15.8699756 L308.864102,15.8699756 C308.691115,16.9609152 307.6665,17.7050629 306.57556,17.5320759 C306.158549,17.4659516 305.773162,17.2695494 305.474599,16.9710006 L301.928356,13.4249179 L301.928356,13.4249179 C301.147289,12.6438871 301.147261,11.3775571 301.928292,10.5964908 C302.226869,10.2978997 302.612292,10.1014716 303.029344,10.0353469 Z" id="Rectangle-11-Copy-2" transform="translate(305.449784, 13.449604) rotate(85.000000) translate(-305.449784, -13.449604) "></path>
                    <path d="M324.037871,186.044148 L328.252363,185.375929 L328.252363,185.375929 C329.343305,185.202958 330.36791,185.94712 330.540882,187.038062 C330.573783,187.24557 330.573781,187.456967 330.540877,187.664475 L329.872628,191.878777 L329.872628,191.878777 C329.699641,192.969716 328.675026,193.713864 327.584087,193.540877 C327.167075,193.474753 326.781688,193.27835 326.483126,192.979802 L322.936882,189.433719 L322.936882,189.433719 C322.155816,188.652688 322.155787,187.386358 322.936818,186.605292 C323.235395,186.306701 323.620818,186.110273 324.037871,186.044148 Z" id="Rectangle-11-Copy-3" transform="translate(326.458310, 189.458405) rotate(155.000000) translate(-326.458310, -189.458405) "></path>
                    <path d="M166.698172,283.085681 L170.912664,282.417462 L170.912664,282.417462 C172.003606,282.24449 173.028211,282.988652 173.201182,284.079594 C173.234084,284.287103 173.234082,284.4985 173.201178,284.706008 L172.532929,288.920309 L172.532929,288.920309 C172.359942,290.011249 171.335327,290.755397 170.244388,290.58241 C169.827376,290.516285 169.441989,290.319883 169.143427,290.021334 L165.597183,286.475252 L165.597183,286.475252 C164.816117,285.694221 164.816088,284.427891 165.597119,283.646824 C165.895696,283.348233 166.281119,283.151805 166.698172,283.085681 Z" id="Rectangle-11-Copy-4" transform="translate(169.118611, 286.499938) rotate(225.000000) translate(-169.118611, -286.499938) "></path>
                </g>
            </g>
        </g>
    </g>
</svg>